Coordinates
version=1
nRows=14
nColumns=24
inDegrees=yes

Units are S.I. units (second, meters, Newtons, ...)
Angles are in degrees.

endheader
time	pelvis_tilt	pelvis_list	pelvis_rotation	pelvis_tx	pelvis_ty	pelvis_tz	hip_flexion_r	hip_adduction_r	hip_rotation_r	knee_angle_r	ankle_angle_r	subtalar_angle_r	mtp_angle_r	hip_flexion_l	hip_adduction_l	hip_rotation_l	knee_angle_l	ankle_angle_l	subtalar_angle_l	mtp_angle_l	lumbar_extension	lumbar_bending	lumbar_rotation
      0.98316667	     -1.10783022	     -6.31291319	     -5.66166017	     -0.14326586	      0.99952919	      0.32973613	    -12.00058474	      7.23443063	     -1.23084397	     -8.41541295	      6.40707168	     -5.85237243	     -3.31927182	     24.58484136	     -8.29892353	    -13.06706135	     -2.79266027	     -0.46707329	     -8.44695584	    -18.66234460	     -8.84920482	      7.30710982	     11.78157064
      0.98733333	     -1.06281547	     -6.25705056	     -5.87447529	     -0.13732371	      0.99886942	      0.32997855	    -12.07667239	      7.04470051	     -1.16404670	     -9.10339102	      6.62586962	     -5.44788829	     -3.11924822	     24.36578675	     -8.26679051	    -12.94280994	     -2.74459871	     -0.56011544	     -8.56158468	    -18.54448518	     -8.88928331	      7.13207203	     11.94280237
      0.99150000	     -0.99412275	     -6.19981314	     -6.05119814	     -0.13140876	      0.99827517	      0.33019665	    -12.15795540	      6.86255416	     -1.11545727	     -9.81921549	      6.80200665	     -5.18604668	     -2.79749336	     24.16319995	     -8.22548712	    -12.80260737	     -2.83740163	     -0.65328097	     -8.72860836	    -18.34970984	     -8.96767876	      6.95185579	     12.12508834
      0.99566667	     -0.92357669	     -6.15421018	     -6.25457500	     -0.12551001	      0.99773440	      0.33049370	    -12.22003446	      6.69128042	     -0.99462860	    -10.57737531	      6.94454908	     -4.95475220	     -2.53688617	     23.96123347	     -8.21423231	    -12.67363620	     -3.01141621	     -0.72471516	     -8.85956788	    -18.19303664	     -9.03173080	      6.80264186	     12.19901805
      0.99983333	     -0.80271647	     -6.07307266	     -6.42546363	     -0.11955721	      0.99731543	      0.33077444	    -12.32789458	      6.47994246	     -0.92695343	    -11.32319218	      6.97799579	     -4.81550363	      3.50631695	     23.73332204	     -8.15921396	    -12.58913717	     -3.29026620	     -0.85194622	     -9.03038470	    -14.42524108	     -9.16004966	      6.57405806	     12.28801455
      1.00400000	     -0.78756392	     -5.99140712	     -6.61374206	     -0.11362457	      0.99677115	      0.33109226	    -12.28481672	      6.28246744	     -0.81512785	    -12.15180695	      7.04222605	     -4.62071937	      3.52767088	     23.63590089	     -8.11919460	    -12.47101827	     -3.65308547	     -0.98916034	     -9.24677552	    -14.40014780	     -9.15808086	      6.36771028	     12.36763542
      1.00816667	     -0.71578382	     -5.91692644	     -6.77303809	     -0.10773041	      0.99633965	      0.33139062	    -12.28765185	      6.09517655	     -0.69712542	    -12.99741595	      7.07938534	     -4.46717476	      3.55396581	     23.50670633	     -8.07879766	    -12.35814047	     -4.10645720	     -1.09138521	     -9.45069576	    -14.37948530	     -9.22910459	      6.15630649	     12.38940380
      1.01233333	     -0.65105932	     -5.79578584	     -6.94882869	     -0.10175719	      0.99597113	      0.33169006	    -12.25240597	      5.84626741	     -0.61588743	    -13.88867420	      7.07092862	     -4.24341644	      3.60129573	     23.36802290	     -7.99235600	    -12.28887804	     -4.56182245	     -1.29873908	     -9.72334478	    -14.34754476	     -9.27361892	      5.89320964	     12.44147575
      1.01650000	     -0.57409762	     -5.64963884	     -7.08210593	     -0.09573028	      0.99566435	      0.33186731	    -12.20410223	      5.56792018	     -0.61174337	    -14.81366353	      6.97927592	     -4.00645762	      3.69941595	     23.21502559	     -7.85431287	    -12.18608037	     -5.01517341	     -1.58770968	    -10.04511604	    -14.28413618	     -9.31429049	      5.61242155	     12.52754862
      1.02066667	     -0.49468380	     -5.53039998	     -7.20407190	     -0.08978401	      0.99538692	      0.33209731	    -12.14193958	      5.33257166	     -0.55688810	    -15.75696703	      6.85688891	     -3.84353648	      3.78511349	     23.10838375	     -7.75674901	    -12.11825830	     -5.58909325	     -1.82045718	    -10.35398216	    -14.23417010	     -9.37704577	      5.34001480	     12.51506571
      1.02483333	     -0.41453815	     -5.35942723	     -7.21883108	     -0.08372130	      0.99513090	      0.33199453	    -12.05082930	      5.03512169	     -0.70939685	    -16.73826674	      6.65919234	     -3.56849963	      4.08750561	     22.99555668	     -7.53719050	    -11.92136198	     -6.10098800	     -2.24055051	    -10.82044989	    -14.06327901	     -9.40281482	      5.03669394	     12.55899646
      1.02900000	     -0.35881398	     -5.23280268	     -7.33492591	     -0.07779534	      0.99491787	      0.33221573	    -11.89592616	      4.79759767	     -0.65580278	    -17.77987145	      6.39846761	     -3.45106427	      4.21193756	     22.92803379	     -7.43996064	    -11.90767078	     -6.72140224	     -2.50056680	    -11.11767267	    -14.00050809	     -9.44084139	      4.77247965	     12.44929722
      1.03316667	     -0.33378358	     -5.07435339	     -7.23909083	     -0.07180245	      0.99459572	      0.33182045	    -11.67104009	      4.52661585	     -0.95142754	    -18.88137653	      6.14450693	     -3.17252938	      4.76504837	     22.93018644	     -7.18924857	    -11.58922202	     -7.30046339	     -2.98006723	    -11.67599261	    -13.73063937	     -9.41318345	      4.52196020	     12.37473468
      1.03733333	     -0.36863899	     -4.93127420	     -7.14142069	     -0.06584344	      0.99421460	      0.33139582	    -11.34603268	      4.27656169	     -1.23732590	    -20.03242537	      5.76102579	     -2.89229913	      6.06476876	     23.02164245	     -6.96419990	    -11.28103093	     -7.94978859	     -3.32673577	    -12.24425886	    -13.13663552	     -9.32643486	      4.31184893	     12.09145362
